<?xml version="1.0" standalone="no"?>
<!DOCTYPE svg PUBLIC "-//W3C//DTD SVG 20010904//EN"
 "http://www.w3.org/TR/2001/REC-SVG-20010904/DTD/svg10.dtd">
<svg version="1.0" xmlns="http://www.w3.org/2000/svg"
 width="800.000000pt" height="800.000000pt" viewBox="0 0 800.000000 800.000000"
 preserveAspectRatio="xMidYMid meet">
<metadata>
Created by potrace 1.11, written by Peter Selinger 2001-2013
</metadata>
<g transform="translate(0.000000,800.000000) scale(0.100000,-0.100000)"
fill="#000000" stroke="none">
<path d="M1260 7988 c-52 -13 -51 -13 -101 -36 -53 -24 -111 -76 -132 -119
-15 -29 -31 -95 -43 -173 -3 -25 -8 -54 -10 -65 -2 -11 -10 -65 -19 -120 -9
-55 -18 -113 -21 -130 -3 -16 -7 -46 -10 -65 -7 -58 -14 -102 -24 -160 -5 -30
-11 -73 -15 -95 -3 -22 -7 -51 -10 -65 -2 -14 -7 -47 -10 -75 -3 -27 -7 -57
-10 -65 -2 -8 -6 -42 -10 -75 -3 -33 -10 -87 -15 -120 -5 -33 -12 -87 -15
-120 -4 -33 -9 -73 -11 -90 -3 -16 -6 -46 -8 -65 -2 -19 -7 -57 -10 -85 -3
-27 -8 -77 -11 -110 -2 -33 -8 -91 -12 -130 -9 -84 -9 -452 0 -515 15 -107 30
-189 44 -245 8 -33 17 -69 19 -80 2 -11 8 -29 13 -40 9 -19 39 -98 65 -172 6
-18 14 -33 18 -33 5 0 8 -7 8 -15 0 -21 113 -208 172 -284 78 -102 249 -267
316 -306 17 -11 32 -23 32 -26 0 -4 9 -11 20 -14 11 -3 26 -12 33 -18 23 -22
159 -92 268 -140 l56 -24 -3 -49 c-4 -85 -15 -276 -19 -344 -3 -36 -7 -117
-10 -180 -3 -63 -7 -146 -10 -185 -4 -76 -15 -284 -20 -380 -10 -200 -16 -308
-20 -365 -3 -36 -7 -123 -11 -195 -3 -71 -7 -159 -9 -195 -2 -36 -7 -112 -10
-170 -3 -58 -7 -141 -10 -185 -3 -44 -7 -132 -11 -195 -3 -63 -7 -144 -10
-180 -2 -36 -6 -110 -9 -165 -6 -123 -13 -261 -21 -380 -3 -49 -7 -128 -9
-175 -3 -47 -7 -134 -10 -195 -3 -60 -7 -134 -9 -164 -9 -163 74 -305 222
-378 l57 -28 582 -2 c404 -2 591 1 610 8 77 31 115 53 156 92 65 62 93 109
115 197 6 23 4 175 -3 280 -4 52 -8 133 -10 180 -4 86 -11 213 -20 370 -3 47
-8 135 -11 195 -3 61 -7 144 -9 185 -2 41 -6 120 -9 175 -3 55 -8 132 -11 171
-3 39 -7 129 -11 200 -3 71 -7 154 -9 184 -1 30 -6 109 -9 175 -3 66 -9 156
-11 200 -3 44 -8 121 -10 170 -2 50 -6 128 -9 175 -3 47 -8 132 -11 190 -11
222 -15 298 -21 395 -7 126 -11 209 -19 360 -3 66 -8 139 -10 163 l-3 44 66
29 c105 46 232 113 232 121 0 5 4 8 9 8 49 0 349 266 421 373 14 20 28 37 33
37 4 0 7 4 7 9 0 6 14 30 30 55 61 90 166 309 186 386 2 8 15 55 28 104 13 48
27 105 30 126 3 21 8 49 10 62 18 76 26 514 13 618 -3 19 -8 64 -11 100 -10
113 -16 164 -21 200 -3 19 -7 55 -10 80 -3 25 -7 65 -10 90 -3 25 -8 65 -11
90 -3 25 -7 56 -9 70 -3 14 -7 50 -10 80 -4 30 -8 62 -10 70 -2 8 -7 38 -10
65 -4 28 -8 61 -11 75 -2 14 -6 45 -10 70 -3 25 -7 52 -9 60 -4 13 -10 55 -21
135 -1 11 -3 22 -4 25 -1 3 -2 8 -1 12 0 4 -4 31 -9 60 -5 29 -12 71 -15 93
-3 23 -8 52 -10 65 -3 14 -7 41 -10 60 -3 19 -7 46 -10 60 -3 14 -8 45 -11 70
-22 164 -62 227 -175 282 -102 50 -257 59 -369 22 -30 -10 -58 -17 -62 -16 -5
1 -8 -2 -8 -8 0 -5 -5 -10 -11 -10 -24 0 -88 -65 -113 -115 l-28 -53 0 -1116
c0 -1195 2 -1143 -46 -1148 -80 -8 -155 -3 -178 11 -24 14 -27 23 -30 86 -2
39 -6 113 -9 165 -3 52 -8 138 -11 190 -2 52 -7 131 -10 175 -2 44 -6 116 -9
161 -5 106 -15 295 -20 364 -2 30 -7 111 -10 180 -4 69 -8 152 -10 185 -2 33
-7 110 -10 170 -3 61 -8 146 -11 190 -2 44 -7 118 -9 165 -9 188 -15 229 -36
275 -34 71 -139 144 -234 160 -63 11 -176 13 -215 3 -19 -5 -46 -11 -60 -14
-70 -15 -167 -94 -196 -160 -18 -42 -18 -43 -28 -234 -4 -69 -9 -156 -12 -195
-5 -82 -13 -225 -19 -345 -3 -47 -7 -125 -10 -175 -3 -49 -7 -133 -10 -185 -3
-52 -7 -131 -10 -175 -3 -44 -7 -120 -10 -170 -3 -49 -7 -126 -10 -170 -2 -44
-7 -120 -9 -170 -3 -49 -8 -142 -12 -205 -4 -63 -8 -140 -9 -170 -2 -30 -3
-63 -4 -72 -1 -10 -11 -23 -23 -29 -33 -18 -167 -19 -200 -3 l-28 15 0 1112
c0 1217 2 1165 -58 1233 -32 37 -100 83 -130 89 -12 2 -27 7 -32 10 -31 19
-211 28 -270 13z"/>
<path d="M6745 7993 c-102 -15 -233 -54 -370 -111 -136 -57 -406 -226 -521
-327 -161 -140 -241 -218 -339 -330 -223 -255 -392 -514 -528 -815 -24 -52
-89 -222 -88 -228 1 -1 -6 -19 -14 -40 -32 -75 -96 -344 -111 -467 -3 -22 -8
-58 -11 -80 -7 -59 -7 -452 1 -510 6 -49 31 -191 40 -230 14 -66 20 -88 44
-165 14 -47 26 -87 27 -90 16 -51 71 -181 115 -270 56 -115 155 -283 171 -288
5 -2 9 -8 9 -14 0 -9 53 -89 75 -114 6 -6 19 -23 30 -38 11 -16 31 -40 45 -56
14 -15 45 -51 69 -80 79 -93 249 -257 361 -350 65 -53 75 -61 94 -77 15 -12
15 -85 1 -213 -3 -25 -8 -79 -11 -120 -7 -101 -12 -164 -18 -230 -5 -49 -10
-119 -21 -260 -2 -25 -6 -74 -9 -110 -3 -36 -8 -101 -11 -145 -3 -44 -8 -100
-11 -125 -2 -25 -7 -76 -9 -115 -3 -38 -7 -95 -9 -125 -3 -30 -8 -86 -11 -125
-3 -38 -8 -99 -11 -135 -10 -111 -19 -223 -29 -365 -2 -22 -6 -69 -9 -105 -3
-36 -8 -99 -11 -140 -3 -41 -7 -93 -10 -115 -2 -22 -7 -78 -11 -125 -6 -87 -7
-97 -20 -255 -12 -138 -9 -188 17 -261 30 -84 107 -167 194 -210 l60 -29 530
0 530 0 66 31 c65 31 143 99 167 146 10 20 21 47 41 98 8 22 12 7402 4 7420
-4 8 -8 20 -9 25 -1 6 -3 13 -4 18 -1 4 -3 10 -4 15 -3 21 -61 106 -94 138
-39 38 -73 59 -132 82 -35 13 -197 23 -255 15z"/>
</g>
</svg>
